<svg xmlns="http://www.w3.org/2000/svg" xmlns:xlink="http://www.w3.org/1999/xlink" xmlns:s="https://github.com/nturley/netlistsvg" width="104" height="249">
  <style>svg {
    stroke: #000;
    fill: none;
  }
  text {
    fill: #000;
    stroke: none;
    font-size: 10px;
    font-weight: bold;
    font-family: "Courier New", monospace;
  }
  .nodelabel {
    text-anchor: middle;
  }
  .inputPortLabel {
    text-anchor: end;
  }
  .splitjoinBody {
    fill: #000;
  }
  .symbol {
    stroke-linejoin: round;
    stroke-linecap: round;
    stroke-width: 2;
  }
  .detail {
    stroke-linejoin: round;
    stroke-linecap: round;
    fill: #000;
  }</style>
  <g s:type="gnd" s:width="20" s:height="30" transform="translate(42,207)" id="cell_gnd">
    <s:alias val="gnd"/>
    <text x="30" y="20" class="nodelabel cell_gnd" s:attribute="name"></text>
    <path d="M0,0 H20 M3,5 H17 M7,10 H13 M10,0 V-15" class="cell_gnd"/>
    <g s:x="10" s:y="-15" s:pid="A" s:position="top"/>
  </g>
  <g s:type="resistor_v" s:width="10" s:height="50" transform="translate(47,47)" id="cell_r1">
    <s:alias val="r_v"/>
    <text x="15" y="15" s:attribute="ref" class="cell_r1">r1</text>
    <text x="15" y="30" s:attribute="value" class="cell_r1"></text>
    <path d="M0,10 V40 H10 V10 Z" class="symbol cell_r1"/>
    <path d="M5,0 V10 M5,40 V50" class="connect cell_r1"/>
    <g s:x="5" s:y="0" s:pid="A" s:position="top"/>
    <g s:x="5" s:y="50" s:pid="B" s:position="bottom"/>
  </g>
  <g s:type="capacitor_v" s:width="30" s:height="50" transform="translate(37,137)" id="cell_c1">
    <s:alias val="c_v"/>
    <text x="25" y="10" s:attribute="ref" class="cell_c1">c1</text>
    <text x="25" y="45" s:attribute="value" class="cell_c1"></text>
    <path d="M0,20 H30 M0,30 H30" class="symbol cell_c1"/>
    <path d="M15,0 V20 M15,30 V50" class="connect cell_c1"/>
    <g s:x="15" s:y="0" s:pid="A" s:position="top"/>
    <g s:x="15" s:y="50" s:pid="B" s:position="bottom"/>
  </g>
  <g s:type="inputExt" s:width="30" s:height="20" transform="translate(12,22)" id="cell_vin">
    <text x="15" y="-4" class="cell_vin" s:attribute="ref">vin</text>
    <s:alias val="$_inputExt_"/>
    <path d="M0,0 V20 H15 L30,10 15,0 Z" class="cell_vin"/>
    <g s:x="30" s:y="10" s:pid="Y" s:position="right"/>
  </g>
  <g s:type="outputExt" s:width="30" s:height="20" transform="translate(62,112)" id="cell_vout">
    <text x="15" y="-4" class="cell_vout" s:attribute="ref">vout</text>
    <s:alias val="$_outputExt_"/>
    <path d="M30,0 V20 H15 L0,10 15,0 Z" class="cell_vout"/>
    <g s:x="0" s:y="10" s:pid="A" s:position="left"/>
  </g>
  <line x1="52" x2="52" y1="187" y2="192" class="net_4"/>
  <line x1="42" x2="52" y1="32" y2="32" class="net_2"/>
  <line x1="52" x2="52" y1="32" y2="47" class="net_2"/>
  <line x1="52" x2="52" y1="97" y2="122" class="net_3"/>
  <circle cx="52" cy="122" r="2" style="fill:#000" class="net_3"/>
  <line x1="52" x2="62" y1="122" y2="122" class="net_3"/>
  <line x1="62" x2="52" y1="122" y2="122" class="net_3"/>
  <circle cx="52" cy="122" r="2" style="fill:#000" class="net_3"/>
  <line x1="52" x2="52" y1="122" y2="137" class="net_3"/>
</svg>

